<svg xmlns="http://www.w3.org/2000/svg" viewBox="0 0 1150.21 487.61"><defs><style>.cls-3{fill:#207dc0}</style></defs><g id="Layer_2" data-name="Layer 2"><g id="Layer_1-2" data-name="Layer 1"><path d="M464.62,40.63S153.64,96,1.06,391.21c0,0-5,18,6.63,2.69,6.53-8.62,145.13-167.51,225.56-222.24C233.25,171.66,414.86,55.56,464.62,40.63Z" style="fill:#f9b31f"/><path d="M327,0S143.28,215.4,163.18,482.22h8.09S165.46,295.84,327,0Z" style="fill:#9ec419"/><path class="cls-3" d="M417.23,218a34.93,34.93,0,0,0-17.73-4.7H352.74a35.56,35.56,0,0,0-16.84,4.2c-23.83,12.82-39.64,35.38-39.64,61.07,0,24.75,14.69,46.61,37.08,59.63a33.82,33.82,0,0,0,17,4.5h42A52.58,52.58,0,0,0,421.86,334C441.44,320.7,454,300.3,454,277.42,454,252.79,439.44,231,417.23,218ZM381.17,321.67H370.29c-28.51,0-51.62-19.67-51.62-43.94s23.11-43.93,51.62-43.93h10.88c28.51,0,51.63,19.67,51.63,43.93S409.68,321.67,381.17,321.67Z"/><path class="cls-3" d="M620.11,331.49a11.2,11.2,0,0,1-18.37,8.59l-91.67-96.24v97.65h-22.7V228l.47-4.08a11.2,11.2,0,0,1,18.28-8.67l93.51,87.7V214.78c0-.62,20.68,0,20.68,0Z"/><path class="cls-3" d="M694.64,213.63a37.94,37.94,0,1,0,0,75.87l65.92.94a15.24,15.24,0,1,1,0,30.47l-101.06.42v21.35h98.89a37.94,37.94,0,1,0,0-75.88l-15.71-.31h-49.6a15.24,15.24,0,1,1,0-30.47h96V213.94Z"/><path class="cls-3" d="M866.29,213.63a37.94,37.94,0,0,0,0,75.87l65.93.94a15.24,15.24,0,1,1,0,30.47l-101.07.42v21.35H930a37.94,37.94,0,1,0,0-75.88l-15.7-.31h-49.6a15.24,15.24,0,1,1,0-30.47h96V213.94Z"/><path class="cls-3" d="M1078.42,218.58a8.71,8.71,0,0,0-14.53.22l-77.25,123h22l60.74-101.22,28,48.66h-39l-9.48,20.53h58.46l20.06,33h22.85Z"/><path class="cls-3" d="M42.52,144.29S93.94,378.14,339.4,487.61C339.4,487.61,106.38,305.17,42.52,144.29Z"/><path class="cls-3" d="M417.23,218a34.93,34.93,0,0,0-17.73-4.7H352.74a35.56,35.56,0,0,0-16.84,4.2c-23.83,12.82-39.64,35.38-39.64,61.07,0,24.75,14.69,46.61,37.08,59.63a33.82,33.82,0,0,0,17,4.5h42A52.58,52.58,0,0,0,421.86,334C441.44,320.7,454,300.3,454,277.42,454,252.79,439.44,231,417.23,218ZM381.17,321.67H370.29c-28.51,0-51.62-19.67-51.62-43.94s23.11-43.93,51.62-43.93h10.88c28.51,0,51.63,19.67,51.63,43.93S409.68,321.67,381.17,321.67Z"/><path class="cls-3" d="M620.11,331.49a11.2,11.2,0,0,1-18.37,8.59l-91.67-96.24v97.65h-22.7V228l.47-4.08a11.2,11.2,0,0,1,18.28-8.67l93.51,87.7V214.78c0-.62,20.68,0,20.68,0Z"/><path class="cls-3" d="M694.64,213.63a37.94,37.94,0,1,0,0,75.87l65.92.94a15.24,15.24,0,1,1,0,30.47l-101.06.42v21.35h98.89a37.94,37.94,0,1,0,0-75.88l-15.71-.31h-49.6a15.24,15.24,0,1,1,0-30.47h96V213.94Z"/><path class="cls-3" d="M866.29,213.63a37.94,37.94,0,0,0,0,75.87l65.93.94a15.24,15.24,0,1,1,0,30.47l-101.07.42v21.35H930a37.94,37.94,0,1,0,0-75.88l-15.7-.31h-49.6a15.24,15.24,0,1,1,0-30.47h96V213.94Z"/><path class="cls-3" d="M1078.42,218.58a8.71,8.71,0,0,0-14.53.22l-77.25,123h22l60.74-101.22,28,48.66h-39l-9.48,20.53h58.46l20.06,33h22.85Z"/><path class="cls-3" d="M42.52,141.8S93.94,375.66,339.4,485.12C339.4,485.12,106.38,302.68,42.52,141.8Z"/><path d="M388.79,88.73s24.32-26.12,31-35.95c.7-1,3.12-6.05-3.61-3.51-4.59,1.73-39.07,19.14-39.07,19.14L361.44,32.86s-5.86-6.63-7,3.14L356,72.33l-41-.25-.63,0c-1.58-.13-8.62-.52-4.44,2.61,4.69,3.52,42.59,25,42.59,25l-.78,39.06,21.09-28.12,25.68,11.32s10.58,4.07,5.76-3C398.65,110.69,388.79,88.73,388.79,88.73Zm-52-6.25,18.75-.59.4,10.73Zm60.31-13.59-11.68,13.4-3.51-7ZM361,58.1l7.24,10.6-7.24.78Zm0,55.32s.11-7.51.11-8.09l5.46,1.36ZM369,96.73,361,95.11V78.85L371.8,77.2c2,2.35,8.2,12.31,8.2,12.31Zm8.64,6.84,6.44-6.63,4.55,13Z" style="fill:#e1061b"/></g></g></svg>